<svg width="279" height="48" viewBox="0 0 279 48" fill="none" xmlns="http://www.w3.org/2000/svg">
<path d="M56.9884 36.8035V13.8294H65.1774C66.9573 13.8294 68.4343 14.136 69.6084 14.7492C70.79 15.3625 71.6725 16.2113 72.2558 17.2957C72.8391 18.3726 73.1308 19.6178 73.1308 21.0312C73.1308 22.4372 72.8354 23.6749 72.2446 24.7443C71.6613 25.8063 70.7788 26.6326 69.5972 27.2235C68.4231 27.8143 66.946 28.1097 65.1662 28.1097H58.9627V25.1257H64.8521C65.9738 25.1257 66.8862 24.9649 67.5892 24.6434C68.2997 24.3218 68.8194 23.8544 69.1485 23.2411C69.4775 22.6279 69.6421 21.8913 69.6421 21.0312C69.6421 20.1637 69.4738 19.4121 69.1373 18.7764C68.8082 18.1408 68.2884 17.6547 67.578 17.3181C66.875 16.9741 65.9514 16.8021 64.8072 16.8021H60.4547V36.8035H56.9884ZM68.3296 26.4382L74.0058 36.8035H70.0571L64.4931 26.4382H68.3296ZM84.2897 37.1512C82.5921 37.1512 81.13 36.7885 79.9036 36.0631C78.6846 35.3302 77.7423 34.3019 77.0767 32.9782C76.4186 31.647 76.0895 30.0877 76.0895 28.3004C76.0895 26.5354 76.4186 24.9799 77.0767 23.6338C77.7423 22.2876 78.6696 21.2369 79.8587 20.4815C81.0552 19.7262 82.4537 19.3485 84.0541 19.3485C85.0264 19.3485 85.9687 19.5093 86.881 19.8309C87.7934 20.1525 88.6123 20.6573 89.3377 21.3453C90.0632 22.0333 90.6353 22.927 91.0541 24.0264C91.4729 25.1182 91.6823 26.4457 91.6823 28.0087V29.1978H77.9853V26.685H88.3954C88.3954 25.8025 88.216 25.021 87.857 24.3405C87.498 23.6524 86.9932 23.1103 86.3426 22.7139C85.6994 22.3175 84.9441 22.1193 84.0766 22.1193C83.1343 22.1193 82.3116 22.3512 81.6087 22.8149C80.9132 23.271 80.3747 23.8693 79.9933 24.6097C79.6194 25.3426 79.4324 26.1391 79.4324 26.9991V28.9622C79.4324 30.1139 79.6343 31.0936 80.0382 31.9013C80.4495 32.709 81.0216 33.3259 81.7545 33.7522C82.4874 34.171 83.3437 34.3804 84.3234 34.3804C84.959 34.3804 85.5386 34.2907 86.0621 34.1112C86.5856 33.9242 87.0381 33.6475 87.4195 33.2811C87.8009 32.9146 88.0926 32.4622 88.2945 31.9237L91.4691 32.4958C91.2149 33.4306 90.7587 34.2495 90.1005 34.9525C89.4499 35.648 88.631 36.1902 87.6438 36.5791C86.6642 36.9605 85.5461 37.1512 84.2897 37.1512ZM108.315 23.7796L105.275 24.318C105.148 23.9292 104.946 23.559 104.67 23.2075C104.4 22.856 104.034 22.5681 103.57 22.3437C103.107 22.1193 102.527 22.0072 101.832 22.0072C100.882 22.0072 100.089 22.2203 99.4534 22.6466C98.8177 23.0654 98.4999 23.6076 98.4999 24.2732C98.4999 24.849 98.713 25.3127 99.1393 25.6642C99.5656 26.0157 100.254 26.3036 101.203 26.5279L103.941 27.1561C105.526 27.5226 106.708 28.0872 107.485 28.85C108.263 29.6128 108.652 30.6038 108.652 31.8228C108.652 32.8548 108.353 33.7747 107.755 34.5823C107.164 35.3825 106.337 36.0107 105.275 36.4669C104.221 36.9231 102.998 37.1512 101.607 37.1512C99.6778 37.1512 98.1035 36.7399 96.8845 35.9173C95.6655 35.0871 94.9177 33.9093 94.641 32.3836L97.8829 31.8901C98.0848 32.7351 98.4999 33.3746 99.1281 33.8083C99.7563 34.2346 100.575 34.4477 101.585 34.4477C102.684 34.4477 103.563 34.2196 104.221 33.7634C104.879 33.2998 105.208 32.7351 105.208 32.0695C105.208 31.5311 105.006 31.0786 104.602 30.7122C104.206 30.3457 103.597 30.069 102.774 29.8821L99.8572 29.2427C98.2494 28.8762 97.0603 28.2929 96.29 27.4927C95.5272 26.6925 95.1458 25.6791 95.1458 24.4527C95.1458 23.4356 95.4299 22.5456 95.9983 21.7828C96.5667 21.02 97.3519 20.4255 98.3541 19.9992C99.3562 19.5654 100.504 19.3485 101.798 19.3485C103.66 19.3485 105.126 19.7524 106.195 20.5601C107.265 21.3603 107.971 22.4334 108.315 23.7796ZM119.598 37.1512C117.93 37.1512 116.494 36.7736 115.29 36.0182C114.094 35.2554 113.174 34.2047 112.531 32.866C111.887 31.5274 111.566 29.9943 111.566 28.2667C111.566 26.5167 111.895 24.9724 112.553 23.6338C113.211 22.2876 114.138 21.2369 115.335 20.4815C116.532 19.7262 117.941 19.3485 119.564 19.3485C120.873 19.3485 122.04 19.5916 123.064 20.0777C124.089 20.5563 124.915 21.2294 125.543 22.0969C126.179 22.9644 126.557 23.9778 126.676 25.1369H123.412C123.232 24.3293 122.821 23.6338 122.178 23.0504C121.542 22.4671 120.69 22.1754 119.62 22.1754C118.685 22.1754 117.867 22.4222 117.164 22.9158C116.468 23.4019 115.926 24.0974 115.537 25.0023C115.148 25.8998 114.954 26.9617 114.954 28.1882C114.954 29.4446 115.144 30.529 115.526 31.4414C115.907 32.3537 116.446 33.0605 117.141 33.5615C117.844 34.0626 118.67 34.3131 119.62 34.3131C120.256 34.3131 120.832 34.1972 121.348 33.9654C121.871 33.726 122.309 33.3858 122.66 32.9445C123.019 32.5033 123.27 31.9723 123.412 31.3516H126.676C126.557 32.4659 126.194 33.4606 125.588 34.3355C124.982 35.2105 124.171 35.8986 123.154 36.3996C122.144 36.9007 120.959 37.1512 119.598 37.1512ZM135.277 37.1849C134.186 37.1849 133.198 36.983 132.316 36.5791C131.434 36.1678 130.734 35.5732 130.218 34.7955C129.71 34.0177 129.455 33.0642 129.455 31.9349C129.455 30.9627 129.642 30.1625 130.016 29.5343C130.39 28.9061 130.895 28.4088 131.531 28.0424C132.166 27.6759 132.877 27.3992 133.662 27.2122C134.447 27.0253 135.248 26.8832 136.063 26.786C137.095 26.6663 137.932 26.5691 138.576 26.4943C139.219 26.412 139.686 26.2812 139.978 26.1017C140.269 25.9222 140.415 25.6305 140.415 25.2267V25.1482C140.415 24.1685 140.139 23.4094 139.585 22.8709C139.039 22.3325 138.224 22.0633 137.14 22.0633C136.01 22.0633 135.12 22.3138 134.47 22.8149C133.827 23.3084 133.382 23.8581 133.135 24.4639L129.983 23.7459C130.357 22.6989 130.903 21.8539 131.62 21.2107C132.346 20.5601 133.18 20.0889 134.122 19.7973C135.064 19.4981 136.055 19.3485 137.095 19.3485C137.783 19.3485 138.512 19.4308 139.282 19.5953C140.06 19.7524 140.785 20.0441 141.459 20.4703C142.139 20.8966 142.696 21.5061 143.13 22.2988C143.564 23.0841 143.781 24.1049 143.781 25.3613V36.8035H140.505V34.4477H140.37C140.154 34.8815 139.828 35.3078 139.394 35.7266C138.961 36.1454 138.404 36.4931 137.723 36.7698C137.042 37.0465 136.227 37.1849 135.277 37.1849ZM136.007 34.4926C136.934 34.4926 137.727 34.3094 138.385 33.9429C139.05 33.5765 139.555 33.0978 139.899 32.507C140.251 31.9088 140.426 31.2693 140.426 30.5888V28.3677C140.307 28.4873 140.075 28.5995 139.731 28.7042C139.394 28.8014 139.009 28.8874 138.576 28.9622C138.142 29.0295 137.719 29.0931 137.308 29.1529C136.897 29.2053 136.553 29.2501 136.276 29.2875C135.625 29.3698 135.031 29.5081 134.492 29.7026C133.961 29.897 133.535 30.1775 133.213 30.5439C132.899 30.9029 132.742 31.3815 132.742 31.9798C132.742 32.8099 133.049 33.4381 133.662 33.8644C134.275 34.2832 135.057 34.4926 136.007 34.4926ZM156.291 19.5729V22.2652H146.88V19.5729H156.291ZM149.404 15.4447H152.758V31.7442C152.758 32.3949 152.855 32.8847 153.049 33.2138C153.244 33.5353 153.494 33.756 153.801 33.8756C154.115 33.9878 154.455 34.0439 154.822 34.0439C155.091 34.0439 155.327 34.0252 155.528 33.9878C155.73 33.9504 155.887 33.9205 156 33.8981L156.605 36.6689C156.411 36.7436 156.134 36.8184 155.775 36.8932C155.416 36.9755 154.968 37.0203 154.429 37.0278C153.547 37.0428 152.724 36.8857 151.961 36.5567C151.198 36.2276 150.581 35.7191 150.11 35.0311C149.639 34.343 149.404 33.4793 149.404 32.4397V15.4447ZM167.243 37.1512C165.545 37.1512 164.083 36.7885 162.856 36.0631C161.637 35.3302 160.695 34.3019 160.03 32.9782C159.371 31.647 159.042 30.0877 159.042 28.3004C159.042 26.5354 159.371 24.9799 160.03 23.6338C160.695 22.2876 161.623 21.2369 162.812 20.4815C164.008 19.7262 165.407 19.3485 167.007 19.3485C167.979 19.3485 168.922 19.5093 169.834 19.8309C170.746 20.1525 171.565 20.6573 172.291 21.3453C173.016 22.0333 173.588 22.927 174.007 24.0264C174.426 25.1182 174.635 26.4457 174.635 28.0087V29.1978H160.938V26.685H171.348C171.348 25.8025 171.169 25.021 170.81 24.3405C170.451 23.6524 169.946 23.1103 169.296 22.7139C168.652 22.3175 167.897 22.1193 167.03 22.1193C166.087 22.1193 165.265 22.3512 164.562 22.8149C163.866 23.271 163.328 23.8693 162.946 24.6097C162.572 25.3426 162.385 26.1391 162.385 26.9991V28.9622C162.385 30.1139 162.587 31.0936 162.991 31.9013C163.402 32.709 163.975 33.3259 164.707 33.7522C165.44 34.171 166.297 34.3804 167.276 34.3804C167.912 34.3804 168.492 34.2907 169.015 34.1112C169.539 33.9242 169.991 33.6475 170.372 33.2811C170.754 32.9146 171.045 32.4622 171.247 31.9237L174.422 32.4958C174.168 33.4306 173.712 34.2495 173.053 34.9525C172.403 35.648 171.584 36.1902 170.597 36.5791C169.617 36.9605 168.499 37.1512 167.243 37.1512ZM178.626 36.8035V13.8294H192.873V16.8133H182.092V23.8132H191.852V26.786H182.092V36.8035H178.626ZM196.65 36.8035V19.5729H199.892V22.31H200.072C200.386 21.3827 200.939 20.6536 201.732 20.1226C202.532 19.5841 203.437 19.3149 204.447 19.3149C204.656 19.3149 204.903 19.3224 205.187 19.3373C205.479 19.3523 205.707 19.371 205.871 19.3934V22.6017C205.737 22.5643 205.497 22.5232 205.153 22.4783C204.809 22.426 204.465 22.3998 204.121 22.3998C203.328 22.3998 202.622 22.5681 202.001 22.9046C201.388 23.2337 200.902 23.6936 200.543 24.2844C200.184 24.8677 200.004 25.5333 200.004 26.2812V36.8035H196.65ZM215.583 37.1512C213.885 37.1512 212.423 36.7885 211.197 36.0631C209.978 35.3302 209.036 34.3019 208.37 32.9782C207.712 31.647 207.383 30.0877 207.383 28.3004C207.383 26.5354 207.712 24.9799 208.37 23.6338C209.036 22.2876 209.963 21.2369 211.152 20.4815C212.349 19.7262 213.747 19.3485 215.347 19.3485C216.32 19.3485 217.262 19.5093 218.174 19.8309C219.087 20.1525 219.906 20.6573 220.631 21.3453C221.356 22.0333 221.929 22.927 222.347 24.0264C222.766 25.1182 222.976 26.4457 222.976 28.0087V29.1978H209.279V26.685H219.689C219.689 25.8025 219.509 25.021 219.15 24.3405C218.791 23.6524 218.287 23.1103 217.636 22.7139C216.993 22.3175 216.237 22.1193 215.37 22.1193C214.428 22.1193 213.605 22.3512 212.902 22.8149C212.206 23.271 211.668 23.8693 211.287 24.6097C210.913 25.3426 210.726 26.1391 210.726 26.9991V28.9622C210.726 30.1139 210.928 31.0936 211.331 31.9013C211.743 32.709 212.315 33.3259 213.048 33.7522C213.781 34.171 214.637 34.3804 215.617 34.3804C216.252 34.3804 216.832 34.2907 217.355 34.1112C217.879 33.9242 218.331 33.6475 218.713 33.2811C219.094 32.9146 219.386 32.4622 219.588 31.9237L222.762 32.4958C222.508 33.4306 222.052 34.2495 221.394 34.9525C220.743 35.648 219.924 36.1902 218.937 36.5791C217.957 36.9605 216.839 37.1512 215.583 37.1512ZM239.609 23.7796L236.569 24.318C236.442 23.9292 236.24 23.559 235.963 23.2075C235.694 22.856 235.327 22.5681 234.864 22.3437C234.4 22.1193 233.82 22.0072 233.125 22.0072C232.175 22.0072 231.382 22.2203 230.747 22.6466C230.111 23.0654 229.793 23.6076 229.793 24.2732C229.793 24.849 230.006 25.3127 230.433 25.6642C230.859 26.0157 231.547 26.3036 232.497 26.5279L235.234 27.1561C236.819 27.5226 238.001 28.0872 238.779 28.85C239.556 29.6128 239.945 30.6038 239.945 31.8228C239.945 32.8548 239.646 33.7747 239.048 34.5823C238.457 35.3825 237.631 36.0107 236.569 36.4669C235.514 36.9231 234.292 37.1512 232.901 37.1512C230.971 37.1512 229.397 36.7399 228.178 35.9173C226.959 35.0871 226.211 33.9093 225.934 32.3836L229.176 31.8901C229.378 32.7351 229.793 33.3746 230.421 33.8083C231.05 34.2346 231.868 34.4477 232.878 34.4477C233.977 34.4477 234.856 34.2196 235.514 33.7634C236.172 33.2998 236.501 32.7351 236.501 32.0695C236.501 31.5311 236.3 31.0786 235.896 30.7122C235.499 30.3457 234.89 30.069 234.067 29.8821L231.151 29.2427C229.543 28.8762 228.354 28.2929 227.583 27.4927C226.82 26.6925 226.439 25.6791 226.439 24.4527C226.439 23.4356 226.723 22.5456 227.292 21.7828C227.86 21.02 228.645 20.4255 229.647 19.9992C230.649 19.5654 231.797 19.3485 233.091 19.3485C234.953 19.3485 236.419 19.7524 237.489 20.5601C238.558 21.3603 239.265 22.4334 239.609 23.7796ZM250.891 37.1512C249.223 37.1512 247.787 36.7736 246.583 36.0182C245.387 35.2554 244.467 34.2047 243.824 32.866C243.181 31.5274 242.859 29.9943 242.859 28.2667C242.859 26.5167 243.188 24.9724 243.846 23.6338C244.504 22.2876 245.432 21.2369 246.628 20.4815C247.825 19.7262 249.235 19.3485 250.857 19.3485C252.166 19.3485 253.333 19.5916 254.357 20.0777C255.382 20.5563 256.208 21.2294 256.837 22.0969C257.472 22.9644 257.85 23.9778 257.97 25.1369H254.705C254.526 24.3293 254.114 23.6338 253.471 23.0504C252.836 22.4671 251.983 22.1754 250.914 22.1754C249.979 22.1754 249.16 22.4222 248.457 22.9158C247.761 23.4019 247.219 24.0974 246.83 25.0023C246.441 25.8998 246.247 26.9617 246.247 28.1882C246.247 29.4446 246.438 30.529 246.819 31.4414C247.2 32.3537 247.739 33.0605 248.434 33.5615C249.137 34.0626 249.964 34.3131 250.914 34.3131C251.549 34.3131 252.125 34.1972 252.641 33.9654C253.165 33.726 253.602 33.3858 253.954 32.9445C254.313 32.5033 254.563 31.9723 254.705 31.3516H257.97C257.85 32.4659 257.487 33.4606 256.881 34.3355C256.276 35.2105 255.464 35.8986 254.447 36.3996C253.438 36.9007 252.252 37.1512 250.891 37.1512ZM268.814 37.1512C267.199 37.1512 265.789 36.781 264.585 36.0407C263.381 35.3003 262.446 34.2645 261.781 32.9333C261.115 31.6021 260.782 30.0466 260.782 28.2667C260.782 26.4793 261.115 24.9163 261.781 23.5777C262.446 22.239 263.381 21.1995 264.585 20.4591C265.789 19.7187 267.199 19.3485 268.814 19.3485C270.43 19.3485 271.839 19.7187 273.043 20.4591C274.248 21.1995 275.182 22.239 275.848 23.5777C276.514 24.9163 276.846 26.4793 276.846 28.2667C276.846 30.0466 276.514 31.6021 275.848 32.9333C275.182 34.2645 274.248 35.3003 273.043 36.0407C271.839 36.781 270.43 37.1512 268.814 37.1512ZM268.826 34.3355C269.873 34.3355 270.74 34.0588 271.428 33.5054C272.116 32.952 272.625 32.2154 272.954 31.2955C273.29 30.3757 273.459 29.3623 273.459 28.2555C273.459 27.1561 273.29 26.1465 272.954 25.2267C272.625 24.2993 272.116 23.5552 271.428 22.9943C270.74 22.4334 269.873 22.153 268.826 22.153C267.771 22.153 266.896 22.4334 266.201 22.9943C265.513 23.5552 265 24.2993 264.664 25.2267C264.335 26.1465 264.17 27.1561 264.17 28.2555C264.17 29.3623 264.335 30.3757 264.664 31.2955C265 32.2154 265.513 32.952 266.201 33.5054C266.896 34.0588 267.771 34.3355 268.826 34.3355Z" fill="#2A7C48"/>
<g clip-path="url(#clip0_77_4198)">
<path d="M42.3827 13.6093C38.4398 13.4517 31.0084 18.6105 28.5732 20.1669C26.4556 22.0365 25.835 20.73 26.932 19.6342C28.4492 18.1203 29.7607 16.1488 35.9723 13.1291C39.0876 11.6145 40.1081 10.9072 39.0654 9.8373C38.0222 8.76621 35.3187 9.95937 36.0045 9.11922C36.6891 8.27709 37.6457 5.12831 36.5884 4.352C35.5325 3.57765 32.8158 5.43451 32.2179 6.34048C31.622 7.24653 31.9491 4.30968 30.6148 3.63578C29.2811 2.96263 28.9129 4.14699 28.4017 7.57295C27.3837 14.4046 25.8963 16.2475 24.9074 18.1494C24.1906 19.5242 22.7589 19.3223 23.9072 16.7423C24.6613 13.9528 27.3552 5.31628 26.0216 1.60246C24.6885 -2.11126 21.3291 1.50183 22.2388 3.68905C19.6302 1.2576 18.9387 5.1505 21.2359 9.40332C21.7819 10.4156 22.9207 14.5318 20.7728 18.9814C19.6662 18.3316 18.0112 17.8115 16.3074 18.4335C14.465 19.1149 13.0263 19.9468 11.8932 20.8515C11.3017 21.3248 10.7911 21.8189 10.3469 22.3288C8.10981 24.8652 7.59102 27.6749 6.89381 29.3736C6.7123 29.8101 6.51674 30.3738 6.3181 31.0237C6.11441 31.6696 5.90247 32.3979 5.68979 33.1753C4.83316 36.2906 3.97465 40.0722 3.6457 41.719C2.98828 44.9899 4.20756 46.2863 5.2501 47.0511C6.29713 47.8198 7.89975 48.5943 10.8227 46.986C13.008 45.7775 19.3949 42.0265 21.6212 40.1809C22.0255 39.8437 22.526 39.4951 23.0694 39.0984C23.6135 38.7017 24.1974 38.262 24.7853 37.7464C26.8648 35.9205 28.9818 33.1197 29.2392 27.9242C29.317 26.111 28.3301 24.6918 27.3772 23.8289C30.9778 20.4454 35.2458 20.2961 36.3758 20.5144C41.1208 21.4299 44.6284 19.6039 41.5257 17.8438C43.8859 18.0557 46.3248 13.7674 42.3827 13.6093ZM22.871 35.6996C22.7338 35.8205 22.5964 35.926 22.4591 36.0388L18.8212 33.3682C18.3113 32.9949 17.6172 33.0721 17.2725 33.5422C16.9315 34.0067 17.0656 34.6924 17.5749 35.0663L20.7079 37.3648C20.3745 37.6084 20.0518 37.8456 19.7588 38.0905C17.733 39.7703 11.5688 43.405 9.34369 44.6355C7.62538 45.58 7.13888 45.2226 6.78325 44.9619C6.42959 44.7019 5.94628 44.3476 6.3328 42.4224C6.63086 40.9299 7.34445 37.7754 8.09671 34.9404L9.42907 35.9179C9.93897 36.2925 10.6324 36.214 10.9728 35.7496C11.3177 35.2795 11.1842 34.595 10.6742 34.221L8.70087 32.7716C8.78315 32.4938 8.86413 32.2192 8.9451 31.9649C9.12287 31.3855 9.29427 30.8913 9.44489 30.5281C9.63791 30.0567 9.80679 29.5544 9.98465 29.0236C10.5003 27.4843 11.0842 25.7393 12.4887 24.1463C12.5325 24.0969 12.583 24.0508 12.6273 24.002L17.5071 27.5829C18.017 27.9562 18.7048 27.8746 19.049 27.4051C19.3906 26.9401 19.2622 26.2593 18.7522 25.8848L14.2539 22.5835C15.1643 21.9452 16.2265 21.3903 17.4362 20.9437C18.5105 20.5514 19.5525 21.2569 19.7506 21.4023L25.3693 25.5254C25.6483 25.7304 26.5543 26.4846 26.5075 27.5905C26.2817 32.1478 24.4457 34.3179 22.871 35.6996Z" fill="#2A7C48"/>
</g>
<defs>
<clipPath id="clip0_77_4198">
<rect width="47.9287" height="47.9287" fill="white"/>
</clipPath>
</defs>
</svg>
